<svg xmlns="http://www.w3.org/2000/svg" version="1.1" xmlns:xlink="http://www.w3.org/1999/xlink" xmlns:svgjs="http://svgjs.dev/svgjs" viewBox="0 0 800 800">
  <defs>
    <linearGradient x1="50%" y1="0%" x2="50%" y2="100%" id="ffflurry-grad" gradientTransform="rotate(270)">
      <stop stop-color="#181818" stop-opacity="1" offset="0%"></stop>
      <stop stop-color="hsl(220, 100%, 76%)" stop-opacity="1" offset="45%"></stop>
      <stop stop-color="hsl(220, 100%, 66%)" stop-opacity="1" offset="100%"></stop>
    </linearGradient>
  </defs>
  <rect width="100%" height="100%" fill="#181818"></rect>
  <g fill="url(#ffflurry-grad)">
    <rect width="25" height="1" x="591.5" y="80.5" rx="0.5" transform="rotate(43, 604, 81)" opacity="0.73"></rect>
    <rect width="121" height="1" x="458.5" y="542.5" rx="0.5" transform="rotate(43, 519, 543)" opacity="0.56"></rect>
    <rect width="174" height="1" x="583" y="411.5" rx="0.5" transform="rotate(43, 670, 412)" opacity="0.73"></rect>
    <rect width="62" height="1" x="449" y="779.5" rx="0.5" transform="rotate(43, 480, 780)" opacity="0.99"></rect>
    <rect width="148" height="1" x="18" y="405.5" rx="0.5" transform="rotate(43, 92, 406)" opacity="0.98"></rect>
    <rect width="186" height="1" x="109" y="736.5" rx="0.5" transform="rotate(43, 202, 737)" opacity="0.21"></rect>
    <rect width="28" height="1" x="31" y="315.5" rx="0.5" transform="rotate(43, 45, 316)" opacity="0.94"></rect>
    <rect width="262" height="1" x="549" y="628.5" rx="0.5" transform="rotate(43, 680, 629)" opacity="0.47"></rect>
    <rect width="110" height="1" x="524" y="530.5" rx="0.5" transform="rotate(43, 579, 531)" opacity="0.36"></rect>
    <rect width="164" height="1" x="75" y="772.5" rx="0.5" transform="rotate(43, 157, 773)" opacity="0.81"></rect>
    <rect width="172" height="1" x="12" y="574.5" rx="0.5" transform="rotate(43, 98, 575)" opacity="0.57"></rect>
    <rect width="278" height="1" x="475" y="602.5" rx="0.5" transform="rotate(43, 614, 603)" opacity="0.64"></rect>
    <rect width="259" height="1" x="639.5" y="536.5" rx="0.5" transform="rotate(43, 769, 537)" opacity="0.21"></rect>
    <rect width="160" height="1" x="547" y="776.5" rx="0.5" transform="rotate(43, 627, 777)" opacity="0.38"></rect>
    <rect width="173" height="1" x="606.5" y="550.5" rx="0.5" transform="rotate(43, 693, 551)" opacity="0.07"></rect>
    <rect width="109" height="1" x="703.5" y="684.5" rx="0.5" transform="rotate(43, 758, 685)" opacity="0.77"></rect>
    <rect width="51" height="1" x="296.5" y="230.5" rx="0.5" transform="rotate(43, 322, 231)" opacity="0.96"></rect>
    <rect width="75" height="1" x="190.5" y="36.5" rx="0.5" transform="rotate(43, 228, 37)" opacity="0.46"></rect>
    <rect width="231" height="1" x="-85.5" y="771.5" rx="0.5" transform="rotate(43, 30, 772)" opacity="0.72"></rect>
    <rect width="233" height="1" x="167.5" y="27.5" rx="0.5" transform="rotate(43, 284, 28)" opacity="0.20"></rect>
    <rect width="178" height="1" x="149" y="623.5" rx="0.5" transform="rotate(43, 238, 624)" opacity="0.87"></rect>
    <rect width="186" height="1" x="540" y="517.5" rx="0.5" transform="rotate(43, 633, 518)" opacity="0.07"></rect>
    <rect width="117" height="1" x="537.5" y="23.5" rx="0.5" transform="rotate(43, 596, 24)" opacity="0.75"></rect>
    <rect width="164" height="1" x="-49" y="384.5" rx="0.5" transform="rotate(43, 33, 385)" opacity="0.69"></rect>
    <rect width="153" height="1" x="457.5" y="437.5" rx="0.5" transform="rotate(43, 534, 438)" opacity="0.84"></rect>
    <rect width="56" height="1" x="746" y="440.5" rx="0.5" transform="rotate(43, 774, 441)" opacity="0.97"></rect>
    <rect width="52" height="1" x="87" y="209.5" rx="0.5" transform="rotate(43, 113, 210)" opacity="0.70"></rect>
    <rect width="90" height="1" x="646" y="352.5" rx="0.5" transform="rotate(43, 691, 353)" opacity="0.12"></rect>
    <rect width="115" height="1" x="601.5" y="688.5" rx="0.5" transform="rotate(43, 659, 689)" opacity="0.96"></rect>
    <rect width="20" height="1" x="82" y="756.5" rx="0.5" transform="rotate(43, 92, 757)" opacity="0.15"></rect>
    <rect width="123" height="1" x="-37.5" y="453.5" rx="0.5" transform="rotate(43, 24, 454)" opacity="0.33"></rect>
    <rect width="170" height="1" x="315" y="429.5" rx="0.5" transform="rotate(43, 400, 430)" opacity="0.73"></rect>
    <rect width="237" height="1" x="205.5" y="155.5" rx="0.5" transform="rotate(43, 324, 156)" opacity="0.99"></rect>
    <rect width="126" height="1" x="227" y="391.5" rx="0.5" transform="rotate(43, 290, 392)" opacity="0.78"></rect>
    <rect width="166" height="1" x="527" y="131.5" rx="0.5" transform="rotate(43, 610, 132)" opacity="0.72"></rect>
    <rect width="104" height="1" x="101" y="419.5" rx="0.5" transform="rotate(43, 153, 420)" opacity="0.32"></rect>
    <rect width="46" height="1" x="516" y="635.5" rx="0.5" transform="rotate(43, 539, 636)" opacity="0.76"></rect>
    <rect width="164" height="1" x="64" y="484.5" rx="0.5" transform="rotate(43, 146, 485)" opacity="0.61"></rect>
    <rect width="117" height="1" x="31.5" y="725.5" rx="0.5" transform="rotate(43, 90, 726)" opacity="0.67"></rect>
    <rect width="238" height="1" x="640" y="302.5" rx="0.5" transform="rotate(43, 759, 303)" opacity="0.79"></rect>
    <rect width="69" height="1" x="53.5" y="334.5" rx="0.5" transform="rotate(43, 88, 335)" opacity="0.25"></rect>
    <rect width="160" height="1" x="322" y="210.5" rx="0.5" transform="rotate(43, 402, 211)" opacity="0.93"></rect>
    <rect width="305" height="1" x="289.5" y="50.5" rx="0.5" transform="rotate(43, 442, 51)" opacity="0.74"></rect>
    <rect width="42" height="1" x="703" y="23.5" rx="0.5" transform="rotate(43, 724, 24)" opacity="0.15"></rect>
    <rect width="192" height="1" x="-73" y="251.5" rx="0.5" transform="rotate(43, 23, 252)" opacity="0.40"></rect>
    <rect width="115" height="1" x="698.5" y="134.5" rx="0.5" transform="rotate(43, 756, 135)" opacity="0.91"></rect>
    <rect width="49" height="1" x="526.5" y="705.5" rx="0.5" transform="rotate(43, 551, 706)" opacity="0.50"></rect>
    <rect width="307" height="1" x="519.5" y="267.5" rx="0.5" transform="rotate(43, 673, 268)" opacity="0.91"></rect>
    <rect width="126" height="1" x="274" y="84.5" rx="0.5" transform="rotate(43, 337, 85)" opacity="0.37"></rect>
    <rect width="44" height="1" x="648" y="85.5" rx="0.5" transform="rotate(43, 670, 86)" opacity="0.30"></rect>
    <rect width="292" height="1" x="424" y="266.5" rx="0.5" transform="rotate(43, 570, 267)" opacity="0.86"></rect>
    <rect width="239" height="1" x="37.5" y="277.5" rx="0.5" transform="rotate(43, 157, 278)" opacity="0.19"></rect>
    <rect width="36" height="1" x="734" y="612.5" rx="0.5" transform="rotate(43, 752, 613)" opacity="0.29"></rect>
    <rect width="286" height="1" x="224" y="367.5" rx="0.5" transform="rotate(43, 367, 368)" opacity="0.75"></rect>
    <rect width="153" height="1" x="239.5" y="423.5" rx="0.5" transform="rotate(43, 316, 424)" opacity="0.68"></rect>
    <rect width="110" height="1" x="47" y="134.5" rx="0.5" transform="rotate(43, 102, 135)" opacity="0.64"></rect>
    <rect width="41" height="1" x="457.5" y="721.5" rx="0.5" transform="rotate(43, 478, 722)" opacity="0.53"></rect>
    <rect width="50" height="1" x="657" y="29.5" rx="0.5" transform="rotate(43, 682, 30)" opacity="0.44"></rect>
    <rect width="279" height="1" x="567.5" y="475.5" rx="0.5" transform="rotate(43, 707, 476)" opacity="0.51"></rect>
    <rect width="195" height="1" x="131.5" y="310.5" rx="0.5" transform="rotate(43, 229, 311)" opacity="0.38"></rect>
    <rect width="30" height="1" x="557" y="478.5" rx="0.5" transform="rotate(43, 572, 479)" opacity="0.95"></rect>
    <rect width="60" height="1" x="68" y="254.5" rx="0.5" transform="rotate(43, 98, 255)" opacity="0.22"></rect>
    <rect width="205" height="1" x="11.5" y="624.5" rx="0.5" transform="rotate(43, 114, 625)" opacity="0.72"></rect>
    <rect width="137" height="1" x="489.5" y="580.5" rx="0.5" transform="rotate(43, 558, 581)" opacity="0.13"></rect>
    <rect width="237" height="1" x="654.5" y="46.5" rx="0.5" transform="rotate(43, 773, 47)" opacity="0.11"></rect>
    <rect width="201" height="1" x="208.5" y="319.5" rx="0.5" transform="rotate(43, 309, 320)" opacity="0.24"></rect>
    <rect width="95" height="1" x="-33.5" y="327.5" rx="0.5" transform="rotate(43, 14, 328)" opacity="0.25"></rect>
    <rect width="35" height="1" x="215.5" y="580.5" rx="0.5" transform="rotate(43, 233, 581)" opacity="0.21"></rect>
    <rect width="149" height="1" x="704.5" y="198.5" rx="0.5" transform="rotate(43, 779, 199)" opacity="0.81"></rect>
    <rect width="46" height="1" x="657" y="755.5" rx="0.5" transform="rotate(43, 680, 756)" opacity="0.16"></rect>
    <rect width="134" height="1" x="172" y="535.5" rx="0.5" transform="rotate(43, 239, 536)" opacity="0.45"></rect>
    <rect width="247" height="1" x="375.5" y="483.5" rx="0.5" transform="rotate(43, 499, 484)" opacity="0.11"></rect>
    <rect width="245" height="1" x="-34.5" y="69.5" rx="0.5" transform="rotate(43, 88, 70)" opacity="0.35"></rect>
    <rect width="195" height="1" x="86.5" y="139.5" rx="0.5" transform="rotate(43, 184, 140)" opacity="0.22"></rect>
    <rect width="55" height="1" x="592.5" y="333.5" rx="0.5" transform="rotate(43, 620, 334)" opacity="0.77"></rect>
    <rect width="118" height="1" x="8" y="273.5" rx="0.5" transform="rotate(43, 67, 274)" opacity="0.97"></rect>
    <rect width="140" height="1" x="55" y="693.5" rx="0.5" transform="rotate(43, 125, 694)" opacity="0.30"></rect>
    <rect width="111" height="1" x="550.5" y="202.5" rx="0.5" transform="rotate(43, 606, 203)" opacity="0.34"></rect>
    <rect width="148" height="1" x="246" y="471.5" rx="0.5" transform="rotate(43, 320, 472)" opacity="0.58"></rect>
    <rect width="39" height="1" x="257.5" y="86.5" rx="0.5" transform="rotate(43, 277, 87)" opacity="0.55"></rect>
    <rect width="346" height="1" x="241" y="132.5" rx="0.5" transform="rotate(43, 414, 133)" opacity="0.60"></rect>
    <rect width="365" height="1" x="228.5" y="655.5" rx="0.5" transform="rotate(43, 411, 656)" opacity="0.41"></rect>
    <rect width="228" height="1" x="151" y="244.5" rx="0.5" transform="rotate(43, 265, 245)" opacity="0.78"></rect>
    <rect width="132" height="1" x="-40" y="710.5" rx="0.5" transform="rotate(43, 26, 711)" opacity="0.69"></rect>
    <rect width="192" height="1" x="55" y="342.5" rx="0.5" transform="rotate(43, 151, 343)" opacity="0.98"></rect>
    <rect width="62" height="1" x="323" y="591.5" rx="0.5" transform="rotate(43, 354, 592)" opacity="0.86"></rect>
    <rect width="43" height="1" x="224.5" y="671.5" rx="0.5" transform="rotate(43, 246, 672)" opacity="0.23"></rect>
    <rect width="107" height="1" x="435.5" y="668.5" rx="0.5" transform="rotate(43, 489, 669)" opacity="0.68"></rect>
    <rect width="115" height="1" x="536.5" y="669.5" rx="0.5" transform="rotate(43, 594, 670)" opacity="0.35"></rect>
    <rect width="93" height="1" x="167.5" y="91.5" rx="0.5" transform="rotate(43, 214, 92)" opacity="0.79"></rect>
    <rect width="266" height="1" x="256" y="552.5" rx="0.5" transform="rotate(43, 389, 553)" opacity="0.23"></rect>
    <rect width="126" height="1" x="100" y="709.5" rx="0.5" transform="rotate(43, 163, 710)" opacity="0.65"></rect>
    <rect width="152" height="1" x="303" y="488.5" rx="0.5" transform="rotate(43, 379, 489)" opacity="0.74"></rect>
    <rect width="177" height="1" x="158.5" y="364.5" rx="0.5" transform="rotate(43, 247, 365)" opacity="0.46"></rect>
    <rect width="86" height="1" x="462" y="181.5" rx="0.5" transform="rotate(43, 505, 182)" opacity="0.71"></rect>
    <rect width="102" height="1" x="31" y="678.5" rx="0.5" transform="rotate(43, 82, 679)" opacity="0.12"></rect>
    <rect width="208" height="1" x="483" y="392.5" rx="0.5" transform="rotate(43, 587, 393)" opacity="0.17"></rect>
    <rect width="83" height="1" x="562.5" y="732.5" rx="0.5" transform="rotate(43, 604, 733)" opacity="0.92"></rect>
    <rect width="97" height="1" x="263.5" y="689.5" rx="0.5" transform="rotate(43, 312, 690)" opacity="0.50"></rect>
    <rect width="269" height="1" x="375.5" y="317.5" rx="0.5" transform="rotate(43, 510, 318)" opacity="0.75"></rect>
    <rect width="208" height="1" x="147" y="717.5" rx="0.5" transform="rotate(43, 251, 718)" opacity="0.51"></rect>
    <rect width="35" height="1" x="511.5" y="748.5" rx="0.5" transform="rotate(43, 529, 749)" opacity="0.95"></rect>
    <rect width="83" height="1" x="599.5" y="27.5" rx="0.5" transform="rotate(43, 641, 28)" opacity="0.92"></rect>
    <rect width="115" height="1" x="104.5" y="190.5" rx="0.5" transform="rotate(43, 162, 191)" opacity="0.49"></rect>
    <rect width="193" height="1" x="427.5" y="115.5" rx="0.5" transform="rotate(43, 524, 116)" opacity="0.42"></rect>
    <rect width="133" height="1" x="608.5" y="165.5" rx="0.5" transform="rotate(43, 675, 166)" opacity="0.80"></rect>
    <rect width="40" height="1" x="447" y="590.5" rx="0.5" transform="rotate(43, 467, 591)" opacity="0.44"></rect>
    <rect width="41" height="1" x="536.5" y="49.5" rx="0.5" transform="rotate(43, 557, 50)" opacity="0.44"></rect>
    <rect width="180" height="1" x="301" y="760.5" rx="0.5" transform="rotate(43, 391, 761)" opacity="0.80"></rect>
    <rect width="154" height="1" x="299" y="279.5" rx="0.5" transform="rotate(43, 376, 280)" opacity="0.60"></rect>
    <rect width="44" height="1" x="64" y="785.5" rx="0.5" transform="rotate(43, 86, 786)" opacity="0.85"></rect>
    <rect width="121" height="1" x="181.5" y="468.5" rx="0.5" transform="rotate(43, 242, 469)" opacity="0.78"></rect>
    <rect width="247" height="1" x="123.5" y="178.5" rx="0.5" transform="rotate(43, 247, 179)" opacity="0.93"></rect>
    <rect width="247" height="1" x="242.5" y="32.5" rx="0.5" transform="rotate(43, 366, 33)" opacity="0.52"></rect>
    <rect width="133" height="1" x="272.5" y="635.5" rx="0.5" transform="rotate(43, 339, 636)" opacity="0.63"></rect>
    <rect width="218" height="1" x="-85" y="576.5" rx="0.5" transform="rotate(43, 24, 577)" opacity="0.67"></rect>
    <rect width="304" height="1" x="323" y="250.5" rx="0.5" transform="rotate(43, 475, 251)" opacity="0.95"></rect>
    <rect width="215" height="1" x="151.5" y="770.5" rx="0.5" transform="rotate(43, 259, 771)" opacity="0.39"></rect>
    <rect width="71" height="1" x="145.5" y="17.5" rx="0.5" transform="rotate(43, 181, 18)" opacity="0.65"></rect>
    <rect width="169" height="1" x="243.5" y="774.5" rx="0.5" transform="rotate(43, 328, 775)" opacity="0.34"></rect>
    <rect width="101" height="1" x="0.5" y="533.5" rx="0.5" transform="rotate(43, 51, 534)" opacity="0.32"></rect>
    <rect width="111" height="1" x="692.5" y="385.5" rx="0.5" transform="rotate(43, 748, 386)" opacity="0.40"></rect>
    <rect width="102" height="1" x="-25" y="71.5" rx="0.5" transform="rotate(43, 26, 72)" opacity="0.29"></rect>
    <rect width="194" height="1" x="349" y="508.5" rx="0.5" transform="rotate(43, 446, 509)" opacity="0.68"></rect>
    <rect width="46" height="1" x="405" y="325.5" rx="0.5" transform="rotate(43, 428, 326)" opacity="0.91"></rect>
    <rect width="143" height="1" x="489.5" y="779.5" rx="0.5" transform="rotate(43, 561, 780)" opacity="0.16"></rect>
    <rect width="115" height="1" x="402.5" y="403.5" rx="0.5" transform="rotate(43, 460, 404)" opacity="0.08"></rect>
    <rect width="139" height="1" x="437.5" y="33.5" rx="0.5" transform="rotate(43, 507, 34)" opacity="0.34"></rect>
    <rect width="180" height="1" x="103" y="518.5" rx="0.5" transform="rotate(43, 193, 519)" opacity="0.48"></rect>
    <rect width="151" height="1" x="652.5" y="753.5" rx="0.5" transform="rotate(43, 728, 754)" opacity="0.36"></rect>
    <rect width="220" height="1" x="102" y="406.5" rx="0.5" transform="rotate(43, 212, 407)" opacity="0.59"></rect>
    <rect width="154" height="1" x="98" y="655.5" rx="0.5" transform="rotate(43, 175, 656)" opacity="0.92"></rect>
    <rect width="188" height="1" x="532" y="444.5" rx="0.5" transform="rotate(43, 626, 445)" opacity="0.51"></rect>
    <rect width="136" height="1" x="-29" y="639.5" rx="0.5" transform="rotate(43, 39, 640)" opacity="0.22"></rect>
    <rect width="137" height="1" x="656.5" y="93.5" rx="0.5" transform="rotate(43, 725, 94)" opacity="0.91"></rect>
    <rect width="289" height="1" x="154.5" y="539.5" rx="0.5" transform="rotate(43, 299, 540)" opacity="0.66"></rect>
    <rect width="186" height="1" x="165" y="129.5" rx="0.5" transform="rotate(43, 258, 130)" opacity="0.55"></rect>
    <rect width="30" height="1" x="512" y="374.5" rx="0.5" transform="rotate(43, 527, 375)" opacity="0.27"></rect>
    <rect width="119" height="1" x="230.5" y="625.5" rx="0.5" transform="rotate(43, 290, 626)" opacity="0.21"></rect>
    <rect width="42" height="1" x="412" y="743.5" rx="0.5" transform="rotate(43, 433, 744)" opacity="0.08"></rect>
    <rect width="141" height="1" x="705.5" y="764.5" rx="0.5" transform="rotate(43, 776, 765)" opacity="0.76"></rect>
    <rect width="91" height="1" x="46.5" y="18.5" rx="0.5" transform="rotate(43, 92, 19)" opacity="0.73"></rect>
    <rect width="201" height="1" x="38.5" y="545.5" rx="0.5" transform="rotate(43, 139, 546)" opacity="0.43"></rect>
    <rect width="67" height="1" x="142.5" y="596.5" rx="0.5" transform="rotate(43, 176, 597)" opacity="0.96"></rect>
    <rect width="164" height="1" x="646" y="216.5" rx="0.5" transform="rotate(43, 728, 217)" opacity="0.69"></rect>
    <rect width="66" height="1" x="316" y="718.5" rx="0.5" transform="rotate(43, 349, 719)" opacity="0.08"></rect>
    <rect width="67" height="1" x="3.5" y="178.5" rx="0.5" transform="rotate(43, 37, 179)" opacity="0.95"></rect>
    <rect width="165" height="1" x="123.5" y="236.5" rx="0.5" transform="rotate(43, 206, 237)" opacity="0.53"></rect>
    <rect width="135" height="1" x="89.5" y="67.5" rx="0.5" transform="rotate(43, 157, 68)" opacity="0.07"></rect>
    <rect width="283" height="1" x="-64.5" y="479.5" rx="0.5" transform="rotate(43, 77, 480)" opacity="0.48"></rect>
  </g>
</svg>