<svg xmlns="http://www.w3.org/2000/svg" version="1.1" xmlns:xlink="http://www.w3.org/1999/xlink" xmlns:svgjs="http://svgjs.dev/svgjs" viewBox="0 0 800 800">
  <g stroke-width="4" stroke="#1143a8" stroke-linecap="round">
    <line x1="0" y1="0" x2="44" y2="44"></line>
    <line x1="44" y1="0" x2="88" y2="44"></line>
    <line x1="88" y1="0" x2="132" y2="44"></line>
    <line x1="132" y1="0" x2="176" y2="44"></line>
    <line x1="220" y1="0" x2="176" y2="44"></line>
    <line x1="264" y1="0" x2="220" y2="44"></line>
    <line x1="308" y1="0" x2="264" y2="44"></line>
    <line x1="352" y1="0" x2="308" y2="44"></line>
    <line x1="352" y1="0" x2="396" y2="44"></line>
    <line x1="440" y1="0" x2="396" y2="44"></line>
    <line x1="440" y1="0" x2="484" y2="44"></line>
    <line x1="484" y1="0" x2="528" y2="44"></line>
    <line x1="572" y1="0" x2="528" y2="44"></line>
    <line x1="572" y1="0" x2="616" y2="44"></line>
    <line x1="616" y1="0" x2="660" y2="44"></line>
    <line x1="704" y1="0" x2="660" y2="44"></line>
    <line x1="748" y1="0" x2="704" y2="44"></line>
    <line x1="748" y1="0" x2="792" y2="44"></line>
    <line x1="836" y1="0" x2="792" y2="44"></line>
    <line x1="44" y1="44" x2="0" y2="88"></line>
    <line x1="88" y1="44" x2="44" y2="88"></line>
    <line x1="88" y1="44" x2="132" y2="88"></line>
    <line x1="132" y1="44" x2="176" y2="88"></line>
    <line x1="220" y1="44" x2="176" y2="88"></line>
    <line x1="220" y1="44" x2="264" y2="88"></line>
    <line x1="264" y1="44" x2="308" y2="88"></line>
    <line x1="308" y1="44" x2="352" y2="88"></line>
    <line x1="352" y1="44" x2="396" y2="88"></line>
    <line x1="440" y1="44" x2="396" y2="88"></line>
    <line x1="440" y1="44" x2="484" y2="88"></line>
    <line x1="484" y1="44" x2="528" y2="88"></line>
    <line x1="572" y1="44" x2="528" y2="88"></line>
    <line x1="572" y1="44" x2="616" y2="88"></line>
    <line x1="616" y1="44" x2="660" y2="88"></line>
    <line x1="704" y1="44" x2="660" y2="88"></line>
    <line x1="748" y1="44" x2="704" y2="88"></line>
    <line x1="792" y1="44" x2="748" y2="88"></line>
    <line x1="836" y1="44" x2="792" y2="88"></line>
    <line x1="0" y1="88" x2="44" y2="132"></line>
    <line x1="44" y1="88" x2="88" y2="132"></line>
    <line x1="88" y1="88" x2="132" y2="132"></line>
    <line x1="132" y1="88" x2="176" y2="132"></line>
    <line x1="220" y1="88" x2="176" y2="132"></line>
    <line x1="264" y1="88" x2="220" y2="132"></line>
    <line x1="264" y1="88" x2="308" y2="132"></line>
    <line x1="308" y1="88" x2="352" y2="132"></line>
    <line x1="352" y1="88" x2="396" y2="132"></line>
    <line x1="440" y1="88" x2="396" y2="132"></line>
    <line x1="484" y1="88" x2="440" y2="132"></line>
    <line x1="484" y1="88" x2="528" y2="132"></line>
    <line x1="572" y1="88" x2="528" y2="132"></line>
    <line x1="572" y1="88" x2="616" y2="132"></line>
    <line x1="616" y1="88" x2="660" y2="132"></line>
    <line x1="660" y1="88" x2="704" y2="132"></line>
    <line x1="704" y1="88" x2="748" y2="132"></line>
    <line x1="792" y1="88" x2="748" y2="132"></line>
    <line x1="836" y1="88" x2="792" y2="132"></line>
    <line x1="44" y1="132" x2="0" y2="176"></line>
    <line x1="88" y1="132" x2="44" y2="176"></line>
    <line x1="88" y1="132" x2="132" y2="176"></line>
    <line x1="132" y1="132" x2="176" y2="176"></line>
    <line x1="220" y1="132" x2="176" y2="176"></line>
    <line x1="220" y1="132" x2="264" y2="176"></line>
    <line x1="308" y1="132" x2="264" y2="176"></line>
    <line x1="308" y1="132" x2="352" y2="176"></line>
    <line x1="352" y1="132" x2="396" y2="176"></line>
    <line x1="396" y1="132" x2="440" y2="176"></line>
    <line x1="440" y1="132" x2="484" y2="176"></line>
    <line x1="484" y1="132" x2="528" y2="176"></line>
    <line x1="528" y1="132" x2="572" y2="176"></line>
    <line x1="616" y1="132" x2="572" y2="176"></line>
    <line x1="616" y1="132" x2="660" y2="176"></line>
    <line x1="660" y1="132" x2="704" y2="176"></line>
    <line x1="748" y1="132" x2="704" y2="176"></line>
    <line x1="748" y1="132" x2="792" y2="176"></line>
    <line x1="836" y1="132" x2="792" y2="176"></line>
    <line x1="0" y1="176" x2="44" y2="220"></line>
    <line x1="44" y1="176" x2="88" y2="220"></line>
    <line x1="132" y1="176" x2="88" y2="220"></line>
    <line x1="176" y1="176" x2="132" y2="220"></line>
    <line x1="220" y1="176" x2="176" y2="220"></line>
    <line x1="264" y1="176" x2="220" y2="220"></line>
    <line x1="308" y1="176" x2="264" y2="220"></line>
    <line x1="352" y1="176" x2="308" y2="220"></line>
    <line x1="352" y1="176" x2="396" y2="220"></line>
    <line x1="396" y1="176" x2="440" y2="220"></line>
    <line x1="484" y1="176" x2="440" y2="220"></line>
    <line x1="484" y1="176" x2="528" y2="220"></line>
    <line x1="528" y1="176" x2="572" y2="220"></line>
    <line x1="572" y1="176" x2="616" y2="220"></line>
    <line x1="660" y1="176" x2="616" y2="220"></line>
    <line x1="704" y1="176" x2="660" y2="220"></line>
    <line x1="748" y1="176" x2="704" y2="220"></line>
    <line x1="748" y1="176" x2="792" y2="220"></line>
    <line x1="792" y1="176" x2="836" y2="220"></line>
    <line x1="44" y1="220" x2="0" y2="264"></line>
    <line x1="88" y1="220" x2="44" y2="264"></line>
    <line x1="132" y1="220" x2="88" y2="264"></line>
    <line x1="176" y1="220" x2="132" y2="264"></line>
    <line x1="176" y1="220" x2="220" y2="264"></line>
    <line x1="264" y1="220" x2="220" y2="264"></line>
    <line x1="308" y1="220" x2="264" y2="264"></line>
    <line x1="352" y1="220" x2="308" y2="264"></line>
    <line x1="352" y1="220" x2="396" y2="264"></line>
    <line x1="440" y1="220" x2="396" y2="264"></line>
    <line x1="484" y1="220" x2="440" y2="264"></line>
    <line x1="528" y1="220" x2="484" y2="264"></line>
    <line x1="572" y1="220" x2="528" y2="264"></line>
    <line x1="616" y1="220" x2="572" y2="264"></line>
    <line x1="616" y1="220" x2="660" y2="264"></line>
    <line x1="704" y1="220" x2="660" y2="264"></line>
    <line x1="704" y1="220" x2="748" y2="264"></line>
    <line x1="748" y1="220" x2="792" y2="264"></line>
    <line x1="836" y1="220" x2="792" y2="264"></line>
    <line x1="0" y1="264" x2="44" y2="308"></line>
    <line x1="44" y1="264" x2="88" y2="308"></line>
    <line x1="88" y1="264" x2="132" y2="308"></line>
    <line x1="132" y1="264" x2="176" y2="308"></line>
    <line x1="176" y1="264" x2="220" y2="308"></line>
    <line x1="220" y1="264" x2="264" y2="308"></line>
    <line x1="308" y1="264" x2="264" y2="308"></line>
    <line x1="308" y1="264" x2="352" y2="308"></line>
    <line x1="352" y1="264" x2="396" y2="308"></line>
    <line x1="396" y1="264" x2="440" y2="308"></line>
    <line x1="484" y1="264" x2="440" y2="308"></line>
    <line x1="484" y1="264" x2="528" y2="308"></line>
    <line x1="528" y1="264" x2="572" y2="308"></line>
    <line x1="572" y1="264" x2="616" y2="308"></line>
    <line x1="660" y1="264" x2="616" y2="308"></line>
    <line x1="660" y1="264" x2="704" y2="308"></line>
    <line x1="704" y1="264" x2="748" y2="308"></line>
    <line x1="792" y1="264" x2="748" y2="308"></line>
    <line x1="792" y1="264" x2="836" y2="308"></line>
    <line x1="0" y1="308" x2="44" y2="352"></line>
    <line x1="44" y1="308" x2="88" y2="352"></line>
    <line x1="132" y1="308" x2="88" y2="352"></line>
    <line x1="176" y1="308" x2="132" y2="352"></line>
    <line x1="176" y1="308" x2="220" y2="352"></line>
    <line x1="220" y1="308" x2="264" y2="352"></line>
    <line x1="308" y1="308" x2="264" y2="352"></line>
    <line x1="352" y1="308" x2="308" y2="352"></line>
    <line x1="396" y1="308" x2="352" y2="352"></line>
    <line x1="396" y1="308" x2="440" y2="352"></line>
    <line x1="440" y1="308" x2="484" y2="352"></line>
    <line x1="484" y1="308" x2="528" y2="352"></line>
    <line x1="528" y1="308" x2="572" y2="352"></line>
    <line x1="616" y1="308" x2="572" y2="352"></line>
    <line x1="660" y1="308" x2="616" y2="352"></line>
    <line x1="704" y1="308" x2="660" y2="352"></line>
    <line x1="748" y1="308" x2="704" y2="352"></line>
    <line x1="792" y1="308" x2="748" y2="352"></line>
    <line x1="836" y1="308" x2="792" y2="352"></line>
    <line x1="44" y1="352" x2="0" y2="396"></line>
    <line x1="44" y1="352" x2="88" y2="396"></line>
    <line x1="132" y1="352" x2="88" y2="396"></line>
    <line x1="176" y1="352" x2="132" y2="396"></line>
    <line x1="220" y1="352" x2="176" y2="396"></line>
    <line x1="220" y1="352" x2="264" y2="396"></line>
    <line x1="264" y1="352" x2="308" y2="396"></line>
    <line x1="352" y1="352" x2="308" y2="396"></line>
    <line x1="352" y1="352" x2="396" y2="396"></line>
    <line x1="396" y1="352" x2="440" y2="396"></line>
    <line x1="484" y1="352" x2="440" y2="396"></line>
    <line x1="528" y1="352" x2="484" y2="396"></line>
    <line x1="528" y1="352" x2="572" y2="396"></line>
    <line x1="616" y1="352" x2="572" y2="396"></line>
    <line x1="616" y1="352" x2="660" y2="396"></line>
    <line x1="660" y1="352" x2="704" y2="396"></line>
    <line x1="748" y1="352" x2="704" y2="396"></line>
    <line x1="792" y1="352" x2="748" y2="396"></line>
    <line x1="792" y1="352" x2="836" y2="396"></line>
    <line x1="0" y1="396" x2="44" y2="440"></line>
    <line x1="88" y1="396" x2="44" y2="440"></line>
    <line x1="88" y1="396" x2="132" y2="440"></line>
    <line x1="176" y1="396" x2="132" y2="440"></line>
    <line x1="220" y1="396" x2="176" y2="440"></line>
    <line x1="220" y1="396" x2="264" y2="440"></line>
    <line x1="264" y1="396" x2="308" y2="440"></line>
    <line x1="308" y1="396" x2="352" y2="440"></line>
    <line x1="396" y1="396" x2="352" y2="440"></line>
    <line x1="440" y1="396" x2="396" y2="440"></line>
    <line x1="484" y1="396" x2="440" y2="440"></line>
    <line x1="528" y1="396" x2="484" y2="440"></line>
    <line x1="528" y1="396" x2="572" y2="440"></line>
    <line x1="616" y1="396" x2="572" y2="440"></line>
    <line x1="616" y1="396" x2="660" y2="440"></line>
    <line x1="704" y1="396" x2="660" y2="440"></line>
    <line x1="704" y1="396" x2="748" y2="440"></line>
    <line x1="748" y1="396" x2="792" y2="440"></line>
    <line x1="836" y1="396" x2="792" y2="440"></line>
    <line x1="0" y1="440" x2="44" y2="484"></line>
    <line x1="44" y1="440" x2="88" y2="484"></line>
    <line x1="132" y1="440" x2="88" y2="484"></line>
    <line x1="176" y1="440" x2="132" y2="484"></line>
    <line x1="176" y1="440" x2="220" y2="484"></line>
    <line x1="264" y1="440" x2="220" y2="484"></line>
    <line x1="264" y1="440" x2="308" y2="484"></line>
    <line x1="352" y1="440" x2="308" y2="484"></line>
    <line x1="396" y1="440" x2="352" y2="484"></line>
    <line x1="440" y1="440" x2="396" y2="484"></line>
    <line x1="440" y1="440" x2="484" y2="484"></line>
    <line x1="528" y1="440" x2="484" y2="484"></line>
    <line x1="528" y1="440" x2="572" y2="484"></line>
    <line x1="616" y1="440" x2="572" y2="484"></line>
    <line x1="616" y1="440" x2="660" y2="484"></line>
    <line x1="704" y1="440" x2="660" y2="484"></line>
    <line x1="704" y1="440" x2="748" y2="484"></line>
    <line x1="748" y1="440" x2="792" y2="484"></line>
    <line x1="836" y1="440" x2="792" y2="484"></line>
    <line x1="44" y1="484" x2="0" y2="528"></line>
    <line x1="88" y1="484" x2="44" y2="528"></line>
    <line x1="132" y1="484" x2="88" y2="528"></line>
    <line x1="132" y1="484" x2="176" y2="528"></line>
    <line x1="220" y1="484" x2="176" y2="528"></line>
    <line x1="264" y1="484" x2="220" y2="528"></line>
    <line x1="308" y1="484" x2="264" y2="528"></line>
    <line x1="352" y1="484" x2="308" y2="528"></line>
    <line x1="352" y1="484" x2="396" y2="528"></line>
    <line x1="396" y1="484" x2="440" y2="528"></line>
    <line x1="440" y1="484" x2="484" y2="528"></line>
    <line x1="484" y1="484" x2="528" y2="528"></line>
    <line x1="572" y1="484" x2="528" y2="528"></line>
    <line x1="572" y1="484" x2="616" y2="528"></line>
    <line x1="616" y1="484" x2="660" y2="528"></line>
    <line x1="704" y1="484" x2="660" y2="528"></line>
    <line x1="704" y1="484" x2="748" y2="528"></line>
    <line x1="748" y1="484" x2="792" y2="528"></line>
    <line x1="792" y1="484" x2="836" y2="528"></line>
    <line x1="0" y1="528" x2="44" y2="572"></line>
    <line x1="44" y1="528" x2="88" y2="572"></line>
    <line x1="132" y1="528" x2="88" y2="572"></line>
    <line x1="132" y1="528" x2="176" y2="572"></line>
    <line x1="176" y1="528" x2="220" y2="572"></line>
    <line x1="264" y1="528" x2="220" y2="572"></line>
    <line x1="264" y1="528" x2="308" y2="572"></line>
    <line x1="352" y1="528" x2="308" y2="572"></line>
    <line x1="352" y1="528" x2="396" y2="572"></line>
    <line x1="440" y1="528" x2="396" y2="572"></line>
    <line x1="484" y1="528" x2="440" y2="572"></line>
    <line x1="484" y1="528" x2="528" y2="572"></line>
    <line x1="572" y1="528" x2="528" y2="572"></line>
    <line x1="616" y1="528" x2="572" y2="572"></line>
    <line x1="616" y1="528" x2="660" y2="572"></line>
    <line x1="660" y1="528" x2="704" y2="572"></line>
    <line x1="748" y1="528" x2="704" y2="572"></line>
    <line x1="748" y1="528" x2="792" y2="572"></line>
    <line x1="792" y1="528" x2="836" y2="572"></line>
    <line x1="0" y1="572" x2="44" y2="616"></line>
    <line x1="44" y1="572" x2="88" y2="616"></line>
    <line x1="88" y1="572" x2="132" y2="616"></line>
    <line x1="176" y1="572" x2="132" y2="616"></line>
    <line x1="176" y1="572" x2="220" y2="616"></line>
    <line x1="264" y1="572" x2="220" y2="616"></line>
    <line x1="308" y1="572" x2="264" y2="616"></line>
    <line x1="308" y1="572" x2="352" y2="616"></line>
    <line x1="352" y1="572" x2="396" y2="616"></line>
    <line x1="396" y1="572" x2="440" y2="616"></line>
    <line x1="440" y1="572" x2="484" y2="616"></line>
    <line x1="484" y1="572" x2="528" y2="616"></line>
    <line x1="528" y1="572" x2="572" y2="616"></line>
    <line x1="572" y1="572" x2="616" y2="616"></line>
    <line x1="616" y1="572" x2="660" y2="616"></line>
    <line x1="704" y1="572" x2="660" y2="616"></line>
    <line x1="748" y1="572" x2="704" y2="616"></line>
    <line x1="792" y1="572" x2="748" y2="616"></line>
    <line x1="792" y1="572" x2="836" y2="616"></line>
    <line x1="44" y1="616" x2="0" y2="660"></line>
    <line x1="88" y1="616" x2="44" y2="660"></line>
    <line x1="88" y1="616" x2="132" y2="660"></line>
    <line x1="176" y1="616" x2="132" y2="660"></line>
    <line x1="220" y1="616" x2="176" y2="660"></line>
    <line x1="264" y1="616" x2="220" y2="660"></line>
    <line x1="264" y1="616" x2="308" y2="660"></line>
    <line x1="352" y1="616" x2="308" y2="660"></line>
    <line x1="396" y1="616" x2="352" y2="660"></line>
    <line x1="396" y1="616" x2="440" y2="660"></line>
    <line x1="484" y1="616" x2="440" y2="660"></line>
    <line x1="528" y1="616" x2="484" y2="660"></line>
    <line x1="572" y1="616" x2="528" y2="660"></line>
    <line x1="572" y1="616" x2="616" y2="660"></line>
    <line x1="616" y1="616" x2="660" y2="660"></line>
    <line x1="704" y1="616" x2="660" y2="660"></line>
    <line x1="748" y1="616" x2="704" y2="660"></line>
    <line x1="792" y1="616" x2="748" y2="660"></line>
    <line x1="792" y1="616" x2="836" y2="660"></line>
    <line x1="0" y1="660" x2="44" y2="704"></line>
    <line x1="88" y1="660" x2="44" y2="704"></line>
    <line x1="132" y1="660" x2="88" y2="704"></line>
    <line x1="132" y1="660" x2="176" y2="704"></line>
    <line x1="220" y1="660" x2="176" y2="704"></line>
    <line x1="220" y1="660" x2="264" y2="704"></line>
    <line x1="264" y1="660" x2="308" y2="704"></line>
    <line x1="352" y1="660" x2="308" y2="704"></line>
    <line x1="352" y1="660" x2="396" y2="704"></line>
    <line x1="396" y1="660" x2="440" y2="704"></line>
    <line x1="440" y1="660" x2="484" y2="704"></line>
    <line x1="528" y1="660" x2="484" y2="704"></line>
    <line x1="528" y1="660" x2="572" y2="704"></line>
    <line x1="572" y1="660" x2="616" y2="704"></line>
    <line x1="616" y1="660" x2="660" y2="704"></line>
    <line x1="660" y1="660" x2="704" y2="704"></line>
    <line x1="748" y1="660" x2="704" y2="704"></line>
    <line x1="792" y1="660" x2="748" y2="704"></line>
    <line x1="792" y1="660" x2="836" y2="704"></line>
    <line x1="44" y1="704" x2="0" y2="748"></line>
    <line x1="44" y1="704" x2="88" y2="748"></line>
    <line x1="132" y1="704" x2="88" y2="748"></line>
    <line x1="132" y1="704" x2="176" y2="748"></line>
    <line x1="176" y1="704" x2="220" y2="748"></line>
    <line x1="264" y1="704" x2="220" y2="748"></line>
    <line x1="264" y1="704" x2="308" y2="748"></line>
    <line x1="308" y1="704" x2="352" y2="748"></line>
    <line x1="352" y1="704" x2="396" y2="748"></line>
    <line x1="440" y1="704" x2="396" y2="748"></line>
    <line x1="440" y1="704" x2="484" y2="748"></line>
    <line x1="528" y1="704" x2="484" y2="748"></line>
    <line x1="572" y1="704" x2="528" y2="748"></line>
    <line x1="572" y1="704" x2="616" y2="748"></line>
    <line x1="616" y1="704" x2="660" y2="748"></line>
    <line x1="704" y1="704" x2="660" y2="748"></line>
    <line x1="704" y1="704" x2="748" y2="748"></line>
    <line x1="792" y1="704" x2="748" y2="748"></line>
    <line x1="836" y1="704" x2="792" y2="748"></line>
    <line x1="0" y1="748" x2="44" y2="792"></line>
    <line x1="44" y1="748" x2="88" y2="792"></line>
    <line x1="132" y1="748" x2="88" y2="792"></line>
    <line x1="176" y1="748" x2="132" y2="792"></line>
    <line x1="220" y1="748" x2="176" y2="792"></line>
    <line x1="264" y1="748" x2="220" y2="792"></line>
    <line x1="264" y1="748" x2="308" y2="792"></line>
    <line x1="308" y1="748" x2="352" y2="792"></line>
    <line x1="396" y1="748" x2="352" y2="792"></line>
    <line x1="440" y1="748" x2="396" y2="792"></line>
    <line x1="484" y1="748" x2="440" y2="792"></line>
    <line x1="484" y1="748" x2="528" y2="792"></line>
    <line x1="572" y1="748" x2="528" y2="792"></line>
    <line x1="616" y1="748" x2="572" y2="792"></line>
    <line x1="660" y1="748" x2="616" y2="792"></line>
    <line x1="660" y1="748" x2="704" y2="792"></line>
    <line x1="704" y1="748" x2="748" y2="792"></line>
    <line x1="792" y1="748" x2="748" y2="792"></line>
    <line x1="792" y1="748" x2="836" y2="792"></line>
    <line x1="44" y1="792" x2="0" y2="836"></line>
    <line x1="44" y1="792" x2="88" y2="836"></line>
    <line x1="132" y1="792" x2="88" y2="836"></line>
    <line x1="132" y1="792" x2="176" y2="836"></line>
    <line x1="220" y1="792" x2="176" y2="836"></line>
    <line x1="264" y1="792" x2="220" y2="836"></line>
    <line x1="264" y1="792" x2="308" y2="836"></line>
    <line x1="308" y1="792" x2="352" y2="836"></line>
    <line x1="352" y1="792" x2="396" y2="836"></line>
    <line x1="396" y1="792" x2="440" y2="836"></line>
    <line x1="484" y1="792" x2="440" y2="836"></line>
    <line x1="528" y1="792" x2="484" y2="836"></line>
    <line x1="572" y1="792" x2="528" y2="836"></line>
    <line x1="572" y1="792" x2="616" y2="836"></line>
    <line x1="660" y1="792" x2="616" y2="836"></line>
    <line x1="704" y1="792" x2="660" y2="836"></line>
    <line x1="704" y1="792" x2="748" y2="836"></line>
    <line x1="748" y1="792" x2="792" y2="836"></line>
    <line x1="792" y1="792" x2="836" y2="836"></line>
  </g>
</svg>